<svg aria-hidden="true" style="position: absolute; width: 0; height: 0; overflow: hidden;" version="1.1" xmlns="http://www.w3.org/2000/svg" xmlns:xlink="http://www.w3.org/1999/xlink">
<defs>
<symbol id="icon-3333" viewBox="0 0 23 32">
<path fill="#fff" style="fill: var(--color1, #fff)" opacity="0.5" d="M5.654 4.678c-0.088-0.020-0.23-0.051-0.315-0.070-0.368-0.080-0.872-0.216-1.191-0.322-0.342-0.113-0.682-0.255-0.928-0.389l-0.097-0.053-0.173-0.007c-0.607-0.026-1.161-0.156-1.593-0.376-0.39-0.198-0.626-0.437-0.709-0.718-0.017-0.057-0.020-0.083-0.017-0.123 0.003-0.034 0.002-0.050-0.004-0.046-0.011 0.007-0.001-0.178 0.013-0.252 0.006-0.030 0.021-0.078 0.033-0.106s0.026-0.062 0.031-0.074c0.008-0.019 0.005-0.030-0.016-0.078-0.014-0.031-0.031-0.076-0.038-0.101-0.017-0.059-0.029-0.147-0.020-0.147 0.004 0 0.007-0.006 0.007-0.013s-0.004-0.010-0.009-0.007c-0.014 0.009 0-0.22 0.018-0.291 0.097-0.386 0.569-0.743 1.248-0.941 0.546-0.16 1.216-0.21 1.839-0.139 0.939 0.107 1.685 0.48 1.907 0.953 0.053 0.114 0.068 0.191 0.067 0.347-0.001 0.153-0.016 0.234-0.062 0.332l-0.028 0.060 0.019 0.036c0.059 0.112 0.081 0.24 0.069 0.413-0.010 0.143-0.022 0.194-0.070 0.294-0.12 0.251-0.397 0.487-0.766 0.651-0.043 0.019-0.081 0.037-0.084 0.041-0.008 0.007 0.028 0.012 0.207 0.029 0.241 0.022 0.392 0.029 0.624 0.029h0.227v0.429c0 0.478-0.006 0.677-0.020 0.676-0.005-0-0.081-0.017-0.169-0.037zM5.813 4.161l0.006-0.518-0.113-0c-0.978-0.001-1.847-0.18-2.728-0.564-0.042-0.018-0.081-0.034-0.086-0.033-0.012 0 0.095 0.069 0.153 0.099l0.047 0.024v0.566l-0.039-0.023c-0.071-0.041-0.21-0.137-0.278-0.191l-0.068-0.054v-0.428l-0.021-0.005c-0.011-0.003-0.024-0.003-0.029-0s-0.008 0.082-0.008 0.191l-0 0.186-0.061-0.064c-0.071-0.074-0.14-0.175-0.176-0.256-0.039-0.087-0.044-0.096-0.056-0.1-0.017-0.006-0.007 0.036 0.028 0.111 0.088 0.191 0.289 0.41 0.53 0.578 0.499 0.348 1.29 0.642 2.401 0.894 0.149 0.034 0.491 0.108 0.492 0.107s0.003-0.234 0.007-0.519zM5.584 4.542c-0.198-0.043-0.588-0.13-0.641-0.143l-0.059-0.014v-0.342c0-0.303 0.001-0.342 0.013-0.342 0.007 0 0.072 0.007 0.145 0.016 0.152 0.018 0.304 0.030 0.495 0.038l0.133 0.005v0.4c0 0.22-0.003 0.4-0.006 0.399s-0.039-0.008-0.080-0.017zM4.63 4.318c-0.106-0.029-0.238-0.066-0.295-0.083l-0.102-0.031-0.002-0.318c-0.002-0.317-0.002-0.318 0.015-0.312 0.040 0.013 0.286 0.063 0.428 0.087l0.154 0.027v0.342c0 0.188-0.001 0.342-0.002 0.341s-0.089-0.024-0.194-0.053zM3.951 4.11c-0.11-0.040-0.224-0.081-0.252-0.091l-0.051-0.019v-0.297c0-0.163 0.002-0.297 0.005-0.297s0.057 0.017 0.121 0.038c0.063 0.021 0.18 0.055 0.259 0.076l0.143 0.038 0.002 0.313c0.002 0.294 0.001 0.313-0.012 0.313-0.008-0-0.105-0.033-0.215-0.073zM3.439 3.91c-0.072-0.033-0.169-0.079-0.215-0.104l-0.084-0.045-0-0.28c-0-0.154 0.003-0.28 0.007-0.28s0.045 0.018 0.092 0.040c0.047 0.022 0.145 0.063 0.218 0.091l0.133 0.051v0.293c0 0.23-0.002 0.293-0.010 0.293-0.006-0-0.069-0.027-0.141-0.060zM2.97 3.751c-0.015-0.012-0.048-0.017-0.164-0.024-0.819-0.056-1.542-0.32-1.915-0.699-0.118-0.119-0.187-0.227-0.235-0.364-0.011-0.031-0.020-0.050-0.020-0.041-0.001 0.026 0.040 0.139 0.074 0.202 0.081 0.15 0.232 0.306 0.42 0.432 0.314 0.21 0.742 0.364 1.244 0.448 0.123 0.021 0.391 0.050 0.499 0.056 0.032 0.001 0.070 0.003 0.086 0.004l0.029 0.001zM2.887 3.697c0-0.002-0.019-0.017-0.043-0.034-0.136-0.098-0.306-0.264-0.384-0.376-0.050-0.071-0.103-0.171-0.133-0.251-0.019-0.050-0.020-0.051-0.056-0.059s-0.038-0.007-0.073 0.027c-0.046 0.045-0.163 0.101-0.257 0.125-0.065 0.016-0.093 0.019-0.246 0.018-0.159-0-0.178-0.002-0.25-0.022-0.195-0.053-0.311-0.153-0.311-0.267 0-0.073 0.037-0.132 0.117-0.186l0.040-0.027-0.019-0.012c-0.237-0.145-0.334-0.223-0.454-0.363-0.027-0.032-0.057-0.070-0.065-0.084s-0.019-0.024-0.024-0.023c-0.014 0.004-0.061 0.139-0.071 0.204-0.011 0.071-0.005 0.188 0.014 0.257 0.071 0.265 0.329 0.527 0.704 0.715 0.264 0.133 0.617 0.242 0.978 0.304 0.193 0.033 0.532 0.068 0.532 0.054zM4.755 3.485c0.289-0.117 0.581-0.306 0.72-0.465 0.087-0.1 0.16-0.213 0.175-0.269 0.003-0.011-0.009 0.006-0.026 0.037-0.12 0.222-0.343 0.414-0.673 0.582-0.096 0.049-0.339 0.15-0.36 0.15-0.005 0-0.007 0.004-0.005 0.008 0.010 0.016 0.042 0.008 0.169-0.044zM4.623 3.479c0.262-0.096 0.464-0.2 0.629-0.323 0.205-0.152 0.337-0.318 0.397-0.499 0.029-0.088 0.037-0.235 0.017-0.324-0.016-0.071-0.054-0.173-0.066-0.176-0.005-0.001-0.025 0.022-0.045 0.052-0.092 0.136-0.287 0.305-0.478 0.412l-0.047 0.027 0.035 0.022c0.141 0.089 0.16 0.24 0.042 0.343-0.050 0.044-0.15 0.092-0.241 0.116-0.097 0.025-0.332 0.032-0.437 0.012-0.132-0.025-0.236-0.070-0.309-0.134l-0.038-0.033-0.114 0.019c-0.105 0.018-0.254 0.036-0.404 0.050l-0.061 0.005 0.063 0.033c0.106 0.055 0.169 0.138 0.169 0.222v0.029l0.072 0.022c0.2 0.061 0.618 0.158 0.688 0.159 0.022 0 0.070-0.012 0.126-0.033zM3.664 3.3c0-0.012-0.066-0.057-0.127-0.086-0.068-0.033-0.175-0.060-0.259-0.066l-0.061-0.005 0.074 0.030c0.081 0.033 0.357 0.134 0.366 0.134 0.003 0 0.006-0.003 0.006-0.007zM3.689 3.221c0-0.002-0.015-0.021-0.034-0.041-0.062-0.067-0.195-0.127-0.281-0.126-0.040 0.001-0.039 0.001 0.035 0.020 0.097 0.025 0.186 0.068 0.236 0.114 0.042 0.038 0.044 0.040 0.044 0.033zM1.874 3.111c0.104-0.018 0.199-0.052 0.264-0.095 0.061-0.041 0.068-0.050 0.039-0.057-0.255-0.059-0.433-0.113-0.594-0.18-0.059-0.024-0.115-0.044-0.125-0.044-0.054 0-0.189 0.066-0.241 0.117s-0.053 0.056-0.026 0.093c0.032 0.044 0.080 0.080 0.143 0.109 0.154 0.070 0.347 0.090 0.539 0.057zM4.778 3.115c0.095-0.015 0.197-0.050 0.259-0.087 0.053-0.032 0.11-0.092 0.11-0.116 0-0.044-0.146-0.144-0.247-0.169-0.037-0.009-0.041-0.008-0.172 0.044-0.172 0.068-0.354 0.122-0.588 0.175-0.020 0.005-0.020 0.005 0.012 0.032 0.125 0.106 0.399 0.159 0.626 0.122zM3.491 2.971c0.938-0.067 1.724-0.38 2.050-0.818 0.051-0.069 0.101-0.154 0.094-0.161-0.002-0.002-0.011 0.008-0.019 0.023-0.136 0.264-0.499 0.527-0.959 0.694-0.339 0.123-0.659 0.19-1.116 0.231-0.17 0.015-0.637 0.013-0.811-0.004-0.668-0.066-1.204-0.231-1.592-0.491-0.243-0.163-0.399-0.343-0.476-0.55-0.019-0.050-0.026-0.063-0.022-0.041 0.008 0.049 0.048 0.149 0.087 0.213 0.233 0.39 0.821 0.702 1.577 0.838 0.202 0.036 0.31 0.049 0.583 0.069 0.093 0.007 0.496 0.005 0.604-0.003zM3.507 2.914c0.931-0.066 1.716-0.384 2.028-0.823 0.15-0.211 0.183-0.428 0.099-0.652-0.168-0.448-0.841-0.826-1.712-0.96-0.287-0.044-0.441-0.056-0.761-0.056-0.68-0.001-1.304 0.13-1.789 0.375-0.274 0.138-0.481 0.308-0.599 0.491-0.089 0.138-0.126 0.264-0.118 0.409 0.006 0.115 0.020 0.167 0.075 0.278 0.161 0.327 0.584 0.608 1.173 0.778 0.302 0.088 0.593 0.137 0.952 0.162 0.095 0.007 0.546 0.005 0.653-0.003zM3.041 2.799c-0.201-0.023-0.374-0.111-0.424-0.215-0.079-0.163 0.111-0.331 0.415-0.367 0.117-0.014 0.282-0.005 0.381 0.021 0.197 0.051 0.325 0.157 0.325 0.272 0 0.045-0.033 0.109-0.077 0.15-0.117 0.108-0.382 0.168-0.619 0.14zM3.392 2.756c0.132-0.033 0.228-0.086 0.283-0.155l0.025-0.031-0.015-0.028c-0.033-0.062-0.136-0.121-0.275-0.157-0.106-0.028-0.305-0.035-0.413-0.015-0.142 0.026-0.24 0.067-0.309 0.127-0.048 0.042-0.055 0.064-0.031 0.102 0.044 0.072 0.2 0.146 0.357 0.171 0.056 0.009 0.328-0.001 0.379-0.014zM2.769 2.347c0.259-0.136 0.695-0.108 0.877 0.056 0.053 0.048 0.055 0.034 0.003-0.019-0.106-0.105-0.345-0.164-0.578-0.143-0.177 0.016-0.338 0.081-0.405 0.162-0.038 0.046-0.032 0.052 0.010 0.010 0.020-0.020 0.061-0.049 0.092-0.066zM1.516 2.353c-0.234-0.042-0.382-0.152-0.382-0.284-0-0.050 0.015-0.085 0.054-0.129 0.187-0.208 0.751-0.226 0.992-0.033 0.063 0.051 0.088 0.097 0.088 0.165 0 0.048-0.003 0.059-0.029 0.096-0.064 0.094-0.215 0.168-0.386 0.189-0.093 0.012-0.26 0.009-0.337-0.005zM1.828 2.333c0.188-0.024 0.345-0.097 0.391-0.183l0.016-0.029-0.025-0.031c-0.093-0.117-0.354-0.191-0.596-0.168-0.121 0.011-0.209 0.034-0.297 0.076-0.063 0.030-0.123 0.078-0.142 0.113-0.007 0.013-0.004 0.022 0.015 0.048 0.096 0.132 0.371 0.208 0.637 0.174zM2.22 1.99c-0.031-0.061-0.147-0.129-0.274-0.162-0.098-0.025-0.289-0.035-0.394-0.019-0.137 0.020-0.265 0.073-0.329 0.136-0.049 0.048-0.054 0.069-0.006 0.025 0.050-0.047 0.147-0.094 0.246-0.121 0.062-0.017 0.089-0.019 0.237-0.019 0.15-0 0.176 0.002 0.242 0.019 0.105 0.027 0.2 0.075 0.247 0.124 0.022 0.022 0.040 0.041 0.041 0.041s-0.003-0.010-0.010-0.023zM4.438 2.354c-0.187-0.036-0.322-0.11-0.368-0.203-0.106-0.213 0.225-0.41 0.632-0.376 0.127 0.011 0.213 0.032 0.3 0.074 0.082 0.040 0.136 0.086 0.163 0.142 0.072 0.145-0.047 0.283-0.306 0.352-0.081 0.022-0.334 0.028-0.422 0.011zM4.745 2.333c0.155-0.019 0.285-0.071 0.358-0.144 0.027-0.027 0.043-0.050 0.043-0.062 0-0.029-0.082-0.103-0.15-0.134-0.101-0.046-0.255-0.078-0.385-0.078-0.127 0-0.293 0.037-0.392 0.087-0.046 0.023-0.118 0.087-0.125 0.11-0.012 0.038 0.054 0.106 0.148 0.151 0.14 0.067 0.321 0.092 0.504 0.069zM4.201 1.919c0.114-0.068 0.27-0.099 0.463-0.092 0.203 0.007 0.353 0.057 0.443 0.147 0.031 0.030 0.036 0.034 0.027 0.016-0.015-0.029-0.065-0.075-0.112-0.102-0.051-0.030-0.172-0.068-0.252-0.080-0.109-0.016-0.306-0.006-0.401 0.021-0.135 0.037-0.236 0.099-0.268 0.163-0.012 0.024-0.010 0.023 0.019-0.009 0.017-0.019 0.053-0.048 0.080-0.064zM3.061 1.923c-0.211-0.022-0.392-0.11-0.444-0.216-0.020-0.041-0.022-0.107-0.005-0.147 0.006-0.015 0.026-0.043 0.043-0.062 0.108-0.12 0.352-0.185 0.606-0.163 0.147 0.013 0.263 0.047 0.352 0.105 0.136 0.088 0.163 0.215 0.068 0.323-0.033 0.037-0.118 0.089-0.184 0.112-0.121 0.042-0.304 0.062-0.436 0.049zM3.678 1.539c-0.104-0.158-0.494-0.228-0.783-0.142-0.095 0.028-0.172 0.070-0.217 0.118-0.050 0.054-0.047 0.066 0.004 0.015s0.135-0.091 0.243-0.12c0.073-0.020 0.094-0.022 0.24-0.022 0.139-0 0.169 0.002 0.233 0.018 0.106 0.026 0.213 0.081 0.258 0.13 0.020 0.022 0.038 0.039 0.040 0.038s-0.007-0.017-0.019-0.035zM1.516 1.567c-0.182-0.033-0.319-0.11-0.363-0.204-0.045-0.096-0.013-0.187 0.089-0.259 0.204-0.143 0.594-0.162 0.847-0.041 0.081 0.039 0.134 0.086 0.163 0.145 0.064 0.131-0.041 0.263-0.264 0.333-0.037 0.012-0.097 0.025-0.135 0.030-0.093 0.012-0.26 0.009-0.337-0.005zM1.913 1.531c0.132-0.029 0.243-0.085 0.291-0.147 0.030-0.040 0.033-0.048 0.017-0.069-0.010-0.013-0.017-0.012-0.096 0.006-0.249 0.057-0.66 0.197-0.622 0.213 0.060 0.024 0.295 0.022 0.41-0.003zM1.531 1.482c0.144-0.062 0.319-0.12 0.49-0.164 0.085-0.022 0.156-0.041 0.158-0.044 0.007-0.007-0.066-0.054-0.117-0.076-0.025-0.011-0.085-0.030-0.133-0.042-0.076-0.019-0.103-0.021-0.226-0.021-0.112 0-0.154 0.003-0.214 0.017-0.138 0.032-0.251 0.090-0.299 0.154l-0.022 0.029 0.017 0.028c0.016 0.027 0.060 0.067 0.107 0.096 0.017 0.010 0.131 0.060 0.142 0.062 0.001 0 0.044-0.018 0.096-0.040zM1.318 1.118c0.132-0.063 0.188-0.074 0.382-0.074 0.149-0 0.176 0.002 0.242 0.019 0.102 0.026 0.201 0.076 0.252 0.128 0.037 0.037 0.040 0.038 0.026 0.014-0.038-0.066-0.144-0.129-0.273-0.162-0.098-0.025-0.289-0.035-0.393-0.019-0.079 0.012-0.198 0.049-0.255 0.079-0.047 0.026-0.101 0.076-0.119 0.112-0.011 0.021-0.006 0.018 0.026-0.017 0.030-0.033 0.057-0.052 0.114-0.079zM4.438 1.567c-0.186-0.034-0.329-0.115-0.373-0.211s0.009-0.208 0.132-0.278c0.046-0.026 0.141-0.061 0.216-0.077 0.082-0.018 0.33-0.018 0.413 0.001 0.178 0.040 0.297 0.112 0.341 0.206 0.075 0.159-0.080 0.309-0.372 0.36-0.086 0.015-0.276 0.015-0.358 0zM4.735 1.546c0.044-0.005 0.084-0.012 0.091-0.015 0.030-0.017-0.357-0.149-0.604-0.206-0.056-0.013-0.105-0.024-0.109-0.024s-0.010 0.009-0.016 0.020c-0.008 0.017-0.006 0.025 0.014 0.054 0.086 0.124 0.363 0.2 0.624 0.171zM4.982 1.481c0.080-0.039 0.124-0.071 0.148-0.11 0.023-0.036 0.017-0.051-0.035-0.099-0.093-0.085-0.291-0.142-0.484-0.142-0.067 0-0.198 0.018-0.264 0.037-0.058 0.016-0.153 0.062-0.185 0.087l-0.024 0.019 0.141 0.035c0.189 0.046 0.488 0.148 0.573 0.194 0.033 0.018 0.058 0.014 0.131-0.021zM4.201 1.133c0.061-0.036 0.175-0.073 0.265-0.086 0.044-0.006 0.116-0.008 0.201-0.006 0.11 0.004 0.144 0.008 0.206 0.026 0.109 0.032 0.186 0.071 0.233 0.118 0.053 0.053 0.053 0.040 0-0.018-0.050-0.054-0.125-0.094-0.242-0.126-0.077-0.022-0.091-0.023-0.246-0.023-0.133 0-0.174 0.003-0.217 0.015-0.149 0.042-0.223 0.079-0.278 0.142-0.018 0.021-0.033 0.041-0.033 0.046s0.014-0.007 0.031-0.026c0.017-0.019 0.053-0.047 0.080-0.063zM3.060 1.137c-0.038-0.004-0.105-0.016-0.15-0.028-0.194-0.050-0.31-0.15-0.31-0.265 0-0.053 0.014-0.088 0.054-0.133 0.108-0.12 0.352-0.185 0.606-0.163 0.147 0.013 0.263 0.047 0.352 0.105 0.136 0.088 0.163 0.215 0.068 0.323-0.033 0.037-0.118 0.089-0.184 0.112-0.122 0.042-0.304 0.062-0.437 0.049zM3.301 1.104c0.18-0.024 0.339-0.1 0.383-0.182l0.016-0.029-0.022-0.029c-0.048-0.063-0.157-0.118-0.296-0.15-0.075-0.017-0.111-0.021-0.209-0.021-0.23-0-0.41 0.058-0.507 0.163l-0.034 0.037 0.015 0.025c0.049 0.084 0.205 0.161 0.376 0.186 0.070 0.010 0.205 0.010 0.279 0zM3.678 0.753c-0.104-0.158-0.494-0.229-0.783-0.142-0.095 0.028-0.172 0.070-0.217 0.118-0.050 0.054-0.047 0.066 0.004 0.015s0.135-0.091 0.243-0.12c0.073-0.020 0.094-0.022 0.24-0.022 0.139-0 0.169 0.002 0.233 0.018 0.106 0.026 0.213 0.081 0.258 0.13 0.020 0.022 0.038 0.039 0.040 0.038s-0.007-0.017-0.019-0.035zM1.295 2.701c0.022-0.011 0.042-0.021 0.043-0.022s0-0.006-0.003-0.010c-0.009-0.014-0.082 0.030-0.123 0.074-0.049 0.053-0.047 0.065 0.003 0.017 0.022-0.021 0.058-0.048 0.080-0.059zM5.134 2.776c-0.023-0.044-0.113-0.111-0.142-0.106-0.009 0.002 0.004 0.013 0.034 0.030 0.026 0.015 0.063 0.043 0.082 0.063s0.035 0.036 0.036 0.036c0.001 0-0.003-0.010-0.010-0.023zM6.784 4.381c0-0.035 0.003-0.050 0.012-0.053 0.010-0.004 0.012-0.034 0.012-0.205 0-0.168-0.002-0.202-0.012-0.21-0.008-0.007-0.012-0.026-0.012-0.058v-0.048h0.291l0.077 0.078v0.118c0 0.117-0 0.118-0.022 0.141l-0.022 0.023 0.019 0.077c0.011 0.045 0.023 0.079 0.030 0.082 0.008 0.003 0.012 0.019 0.012 0.054v0.049h-0.156v-0.045c0-0.025 0.004-0.052 0.008-0.059 0.006-0.010 0.004-0.029-0.006-0.067l-0.015-0.053-0.086-0.005v0.061c0 0.034 0.004 0.064 0.008 0.066s0.008 0.027 0.008 0.054v0.049h-0.147zM7.033 4.080c0.016-0.016 0.018-0.134 0.003-0.149-0.006-0.006-0.033-0.010-0.066-0.010h-0.056v0.081c0 0.044 0.002 0.083 0.005 0.086 0.011 0.011 0.1 0.006 0.113-0.007zM7.668 4.38c0-0.027 0.004-0.051 0.008-0.054s0.008-0.082 0.008-0.209-0.003-0.206-0.008-0.209c-0.005-0.003-0.008-0.027-0.008-0.054v-0.049h0.327v0.131h-0.053c-0.030 0-0.053-0.004-0.053-0.008s-0.020-0.008-0.045-0.008h-0.045v0.139l0.143 0.005 0.005 0.111h-0.148v0.147h0.040c0.022 0 0.043-0.004 0.045-0.008s0.029-0.008 0.058-0.008h0.053v0.123h-0.327zM8.503 4.38c0-0.027 0.004-0.051 0.008-0.054s0.008-0.082 0.008-0.209-0.003-0.206-0.008-0.209c-0.005-0.003-0.008-0.027-0.008-0.054v-0.049h0.147v0.049c0 0.027-0.004 0.051-0.008 0.054s-0.008 0.082-0.008 0.209v0.204h0.033c0.018 0 0.033-0.004 0.033-0.008s0.023-0.008 0.053-0.008h0.053v0.123h-0.303zM9.297 4.383c0-0.028 0.005-0.051 0.011-0.059s0.029-0.099 0.050-0.205c0.030-0.148 0.036-0.196 0.029-0.207-0.005-0.008-0.009-0.035-0.009-0.060v-0.045h0.237v0.047c0 0.026-0.004 0.052-0.009 0.057-0.011 0.011 0.063 0.391 0.080 0.412 0.006 0.007 0.011 0.033 0.011 0.059v0.046h-0.112l-0.023-0.127-0.062-0.002c-0.070-0.003-0.065-0.008-0.081 0.074l-0.011 0.055h-0.112zM9.535 4.172c0-0.011-0.017-0.101-0.029-0.151-0.002-0.011-0.006-0.018-0.008-0.016-0.004 0.004-0.037 0.158-0.037 0.171 0 0.004 0.017 0.007 0.037 0.007 0.027 0 0.037-0.003 0.037-0.012zM10.19 4.38c0-0.036 0.003-0.051 0.013-0.056 0.007-0.004 0.029-0.052 0.048-0.106l0.036-0.099-0.034-0.095c-0.019-0.052-0.041-0.102-0.048-0.11-0.010-0.011-0.014-0.030-0.014-0.062v-0.046l0.102 0 0.036 0.102c0.020 0.056 0.039 0.102 0.042 0.102s0.022-0.045 0.041-0.1l0.036-0.1 0.102-0.005v0.047c0 0.032-0.004 0.052-0.013 0.061-0.007 0.008-0.029 0.058-0.048 0.11l-0.035 0.095 0.036 0.099c0.020 0.055 0.041 0.102 0.048 0.106 0.008 0.005 0.012 0.021 0.012 0.055v0.049l-0.102-0-0.036-0.102c-0.020-0.056-0.039-0.1-0.042-0.098s-0.022 0.048-0.042 0.102l-0.036 0.098-0.102 0v-0.049zM11.058 4.381c0-0.035 0.003-0.050 0.012-0.053 0.010-0.004 0.012-0.034 0.012-0.205 0-0.168-0.002-0.202-0.012-0.21-0.008-0.007-0.012-0.026-0.012-0.058v-0.048h0.156v0.048c0 0.033-0.004 0.051-0.012 0.058-0.010 0.009-0.012 0.042-0.012 0.209s0.002 0.2 0.012 0.209c0.008 0.007 0.012 0.025 0.012 0.054v0.044h-0.156zM11.721 4.38c0-0.027 0.004-0.051 0.008-0.054s0.008-0.082 0.008-0.209c0-0.131-0.003-0.204-0.008-0.204s-0.008-0.023-0.008-0.053v-0.053h0.136l0.060 0.156c0.033 0.086 0.063 0.156 0.067 0.156s0.007-0.044 0.007-0.097c0-0.076-0.003-0.099-0.012-0.107-0.008-0.007-0.012-0.026-0.012-0.058v-0.048h0.156v0.048c0 0.033-0.004 0.051-0.012 0.058-0.010 0.009-0.012 0.048-0.012 0.263v0.253l-0.119-0-0.056-0.146c-0.031-0.080-0.059-0.151-0.063-0.158s-0.007 0.028-0.007 0.092c-0 0.061 0.003 0.106 0.008 0.109s0.008 0.027 0.008 0.054v0.049h-0.147v-0.049zM12.668 4.39l-0.039-0.039v-0.467l0.078-0.077h0.201l0.040 0.043c0.040 0.043 0.040 0.044 0.040 0.098l0 0.055h-0.114l-0.005-0.078-0.056-0.002c-0.034-0.002-0.060 0.001-0.068 0.007-0.016 0.013-0.017 0.367-0.002 0.383 0.010 0.010 0.094 0.014 0.116 0.005 0.010-0.004 0.013-0.019 0.013-0.073v-0.068l-0.023-0.003c-0.022-0.003-0.023-0.004-0.025-0.058l-0.002-0.055h0.165v0.291l-0.078 0.077h-0.205l-0.039-0.039zM14.112 4.381c0-0.033 0.004-0.051 0.012-0.058 0.010-0.009 0.012-0.042 0.012-0.205s-0.002-0.196-0.012-0.205c-0.008-0.007-0.012-0.026-0.012-0.059v-0.048l0.141 0.005 0.043 0.111c0.024 0.061 0.046 0.111 0.049 0.111s0.025-0.050 0.049-0.111l0.043-0.111 0.142-0.005v0.048c0 0.033-0.004 0.052-0.012 0.059-0.010 0.009-0.012 0.042-0.012 0.209 0 0.169 0.002 0.199 0.012 0.203 0.009 0.003 0.012 0.018 0.012 0.054v0.049h-0.147v-0.049c0-0.027 0.004-0.051 0.008-0.054s0.008-0.050 0.008-0.113c0-0.061-0.003-0.104-0.007-0.1s-0.017 0.035-0.030 0.067l-0.023 0.059h-0.086l-0.023-0.058c-0.012-0.032-0.026-0.060-0.029-0.062s-0.007 0.042-0.007 0.098c0 0.059 0.003 0.104 0.008 0.107s0.008 0.027 0.008 0.054v0.049h-0.147zM15.125 4.39l-0.039-0.039v-0.467l0.078-0.077h0.205l0.085 0.086v0.459l-0.078 0.077h-0.213zM15.33 4.316c0.008-0.005 0.010-0.050 0.008-0.198l-0.002-0.192-0.060-0.002c-0.037-0.002-0.065 0.001-0.072 0.007-0.015 0.013-0.017 0.367-0.002 0.383 0.011 0.011 0.111 0.013 0.127 0.003zM16.065 4.419c-0.002-0.006-0.024-0.115-0.049-0.244s-0.051-0.244-0.058-0.257c-0.007-0.013-0.012-0.043-0.012-0.068v-0.045l0.11 0.005 0.041 0.206c0.023 0.113 0.044 0.208 0.047 0.211 0.006 0.006 0.008-0.001 0.057-0.248l0.035-0.174h0.112v0.046c0 0.028-0.005 0.052-0.011 0.059-0.008 0.010-0.111 0.483-0.111 0.512 0 0.003-0.035 0.005-0.078 0.005-0.055 0-0.079-0.003-0.081-0.010zM16.838 4.38c0-0.027 0.004-0.051 0.008-0.054s0.008-0.082 0.008-0.209c0-0.131-0.003-0.204-0.008-0.204s-0.008-0.023-0.008-0.053v-0.053h0.147v0.049c0 0.027-0.004 0.051-0.008 0.054s-0.008 0.082-0.008 0.209 0.003 0.206 0.008 0.209c0.005 0.003 0.008 0.027 0.008 0.054v0.049h-0.147zM17.493 4.38c0-0.027 0.004-0.051 0.008-0.054s0.008-0.082 0.008-0.209-0.003-0.206-0.008-0.209c-0.005-0.003-0.008-0.027-0.008-0.054v-0.049h0.328v0.131h-0.053c-0.030 0-0.053-0.004-0.053-0.008s-0.020-0.008-0.045-0.008h-0.045v0.139l0.143 0.005 0.005 0.111h-0.148v0.147h0.040c0.022 0 0.043-0.004 0.046-0.008s0.029-0.008 0.058-0.008h0.053v0.123h-0.328zM18.328 4.386c0-0.038 0.012-0.068 0.094-0.247 0.052-0.112 0.094-0.207 0.094-0.21s-0.017-0.007-0.037-0.007c-0.020 0-0.037 0.004-0.037 0.008s-0.023 0.008-0.053 0.008h-0.053v-0.131h0.319v0.045c0 0.040-0.011 0.068-0.094 0.25-0.052 0.113-0.094 0.209-0.094 0.213 0 0.010 0.079 0.010 0.086-0 0.003-0.005 0.027-0.008 0.054-0.008h0.049v0.123h-0.328zM19.206 4.389l-0.043-0.040v-0.457l0.087-0.085h0.205l0.077 0.078v0.467l-0.078 0.077-0.204-0-0.043-0.040zM19.416 4.311c0.007-0.008 0.009-0.067 0.007-0.199l-0.002-0.187h-0.139l-0.002 0.187c-0.002 0.131 0.001 0.191 0.007 0.199s0.028 0.011 0.065 0.011 0.058-0.004 0.065-0.011zM20.048 4.38c0-0.027 0.004-0.051 0.008-0.054s0.008-0.082 0.008-0.209c0-0.131-0.003-0.204-0.008-0.204s-0.008-0.023-0.008-0.053v-0.053h0.136l0.014 0.039c0.048 0.13 0.107 0.272 0.113 0.272 0.004 0 0.007-0.044 0.007-0.097 0-0.076-0.003-0.099-0.012-0.107-0.008-0.007-0.012-0.026-0.012-0.058v-0.048h0.147v0.053c0 0.030-0.004 0.053-0.008 0.053s-0.008 0.091-0.008 0.258v0.258h-0.119l-0.061-0.155c-0.033-0.085-0.064-0.153-0.067-0.151s-0.007 0.048-0.007 0.101c0 0.079 0.002 0.098 0.012 0.102s0.012 0.018 0.012 0.054v0.049h-0.147zM20.956 4.38c0-0.027 0.004-0.051 0.008-0.054s0.008-0.082 0.008-0.209c0-0.131-0.003-0.204-0.008-0.204s-0.008-0.023-0.008-0.053v-0.053h0.319v0.131h-0.049c-0.027 0-0.051-0.004-0.054-0.008s-0.025-0.008-0.050-0.008h-0.045v0.139h0.147v0.114l-0.143 0.005v0.139l0.043 0.002c0.026 0.002 0.043-0.001 0.043-0.006s0.021-0.009 0.053-0.009h0.053v0.123h-0.319zM18.122 3.279c-0.004-0.004 0.036-0.18 0.227-1.002 0.052-0.222 0.094-0.411 0.094-0.42 0-0.014-0.005-0.016-0.057-0.013l-0.057 0.002-0.003 0.086c-0.004 0.132-0.044 0.248-0.127 0.375-0.109 0.166-0.221 0.266-0.389 0.349-0.181 0.089-0.325 0.126-0.528 0.133-0.204 0.007-0.385-0.019-0.581-0.085-0.096-0.032-0.242-0.097-0.24-0.107 0.001-0.003 0.030-0.134 0.065-0.291l0.064-0.285h0.109c0.108 0 0.109 0 0.109 0.019 0 0.010 0.010 0.038 0.021 0.061 0.101 0.203 0.539 0.292 0.69 0.14 0.052-0.052 0.065-0.106 0.036-0.145-0.022-0.029-0.102-0.069-0.202-0.1-0.325-0.101-0.388-0.126-0.448-0.173-0.027-0.021-0.036-0.024-0.095-0.024h-0.065l-0.028-0.035c-0.070-0.087-0.096-0.164-0.096-0.287 0-0.392 0.266-0.699 0.7-0.807 0.13-0.032 0.184-0.038 0.368-0.038 0.195 0 0.3 0.014 0.452 0.057 0.067 0.019 0.223 0.078 0.246 0.092 0.008 0.005-0.006 0.074-0.054 0.284l-0.064 0.278-0.213 0.005-0.010-0.033c-0.031-0.105-0.234-0.199-0.43-0.199-0.052 0-0.098 0.005-0.123 0.012-0.079 0.025-0.129 0.076-0.131 0.133-0.002 0.061 0.056 0.099 0.224 0.147 0.214 0.062 0.292 0.088 0.357 0.12 0.119 0.058 0.197 0.136 0.23 0.229l0.014 0.040h0.132l0.064-0.28c0.035-0.154 0.067-0.294 0.072-0.311l0.008-0.031h0.648l-0.004 0.037c-0.002 0.020-0.002 0.037-0 0.037s0.039-0.013 0.081-0.029c0.267-0.1 0.468-0.089 0.588 0.031 0.11 0.11 0.14 0.271 0.109 0.574-0.002 0.016 0.003 0.018 0.069 0.022l0.071 0.004-0.023 0.094c-0.054 0.221-0.154 0.412-0.296 0.561-0.206 0.218-0.458 0.315-0.703 0.27-0.043-0.008-0.085-0.015-0.094-0.015-0.014-0.001-0.022 0.024-0.071 0.24-0.030 0.133-0.058 0.25-0.060 0.26l-0.005 0.018h-0.322c-0.177 0-0.324-0.002-0.326-0.004zM19.103 2.295c0.108-0.037 0.237-0.243 0.255-0.406l0.005-0.047h-0.139l-0.004-0.052c-0.007-0.091-0.038-0.134-0.103-0.142-0.045-0.006-0.115 0.018-0.12 0.041-0.002 0.010-0.010 0.043-0.016 0.074-0.020 0.091-0.023 0.087 0.053 0.087 0.036 0 0.066 0.001 0.066 0.003s-0.022 0.1-0.049 0.219c-0.027 0.119-0.047 0.22-0.045 0.226 0.006 0.015 0.051 0.013 0.099-0.003zM11.414 2.799c-0.095-0.012-0.208-0.046-0.298-0.090-0.228-0.111-0.343-0.332-0.313-0.603 0.008-0.070 0.037-0.204 0.055-0.25 0.005-0.013-0.001-0.014-0.069-0.014-0.057 0-0.075-0.003-0.075-0.011 0-0.022 0.088-0.184 0.135-0.25 0.275-0.382 0.835-0.567 1.18-0.391 0.104 0.053 0.173 0.123 0.221 0.222 0.043 0.090 0.054 0.158 0.050 0.305l-0.004 0.125h0.073c0.088 0 0.085-0.011 0.042 0.158l-0.031 0.121h-0.456c-0.397 0-0.457 0.002-0.466 0.012-0.015 0.018 0.003 0.097 0.029 0.132 0.045 0.060 0.142 0.093 0.271 0.093 0.133 0 0.292-0.041 0.346-0.090 0.026-0.024 0.027-0.024 0.128-0.024 0.073 0 0.102 0.003 0.102 0.010s-0.081 0.331-0.095 0.376c-0.005 0.017-0.125 0.073-0.225 0.106-0.189 0.062-0.424 0.087-0.601 0.064zM11.811 1.679c0-0.089-0.147-0.149-0.275-0.112-0.070 0.020-0.153 0.077-0.176 0.12-0.008 0.014 0.001 0.015 0.222 0.015h0.23zM7.066 2.791c-0.364-0.056-0.589-0.258-0.652-0.584-0.011-0.059-0.014-0.26-0.005-0.323l0.006-0.043h-0.078c-0.043 0-0.078-0.003-0.078-0.008s0.011-0.058 0.025-0.12c0.066-0.295 0.186-0.519 0.384-0.716 0.219-0.219 0.457-0.33 0.773-0.361 0.181-0.018 0.413 0.006 0.566 0.058 0.075 0.025 0.206 0.088 0.239 0.113l0.018 0.014-0.134 0.581-0.218 0.005-0.064-0.060c-0.114-0.106-0.222-0.159-0.34-0.167-0.13-0.009-0.23 0.034-0.344 0.149-0.111 0.111-0.188 0.255-0.221 0.414-0.022 0.103-0.025 0.098 0.066 0.098h0.078l0 0.047c0 0.115 0.039 0.214 0.106 0.275 0.054 0.049 0.103 0.065 0.195 0.064 0.127-0.001 0.296-0.060 0.466-0.162l0.087-0.052h0.203l-0.005 0.031c-0.003 0.017-0.032 0.145-0.064 0.284l-0.059 0.254-0.046 0.026c-0.129 0.073-0.338 0.145-0.494 0.172-0.088 0.015-0.34 0.022-0.409 0.011zM8.935 2.753c-0.002-0.003 0.043-0.208 0.1-0.454s0.102-0.45 0.1-0.452c-0.002-0.002-0.033-0.004-0.068-0.004s-0.064-0.003-0.064-0.006c0-0.004 0.033-0.151 0.074-0.329s0.074-0.324 0.074-0.325c0-0.002 0.146-0.002 0.325-0.001l0.325 0.002-0.003 0.027c-0.001 0.015-0 0.027 0.003 0.027s0.038-0.013 0.077-0.028c0.039-0.016 0.107-0.038 0.152-0.050 0.070-0.019 0.093-0.021 0.167-0.018 0.1 0.004 0.153 0.021 0.217 0.070 0.053 0.041 0.107 0.12 0.128 0.192 0.015 0.051 0.017 0.071 0.013 0.17-0.003 0.074-0.010 0.137-0.022 0.185-0.010 0.040-0.016 0.078-0.014 0.084 0.003 0.008 0.023 0.011 0.069 0.011h0.065l-0.101 0.436c-0.056 0.24-0.103 0.444-0.105 0.454l-0.004 0.018h-0.656l0.005-0.020c0.003-0.011 0.040-0.172 0.083-0.358 0.083-0.36 0.118-0.528 0.111-0.535-0.002-0.002-0.033-0.004-0.068-0.004h-0.064l0.005-0.072c0.005-0.064 0.003-0.074-0.012-0.092s-0.023-0.020-0.066-0.020c-0.067 0-0.087 0.020-0.108 0.108-0.008 0.035-0.014 0.069-0.012 0.075 0.003 0.007 0.024 0.010 0.065 0.010 0.034 0 0.062 0.003 0.062 0.007 0 0.008-0.194 0.864-0.201 0.887-0.004 0.013-0.027 0.014-0.327 0.014-0.177 0-0.324-0.003-0.326-0.006zM12.399 2.755c-0.002-0.002 0.043-0.206 0.1-0.452s0.102-0.451 0.1-0.454c-0.002-0.003-0.033-0.006-0.068-0.006s-0.065-0.002-0.065-0.004c0-0.002 0.033-0.149 0.074-0.326s0.074-0.325 0.074-0.327c0-0.003 0.148-0.005 0.328-0.005h0.328l-0.011 0.056 0.057-0.024c0.137-0.057 0.298-0.084 0.391-0.065 0.068 0.014 0.137 0.053 0.181 0.101 0.020 0.022 0.036 0.044 0.036 0.048 0 0.014 0.024 0.007 0.064-0.017 0.085-0.052 0.224-0.105 0.324-0.122 0.067-0.012 0.197-0.011 0.246 0.003 0.128 0.034 0.212 0.121 0.242 0.251 0.017 0.072 0.012 0.195-0.012 0.318-0.012 0.060-0.019 0.112-0.017 0.117s0.032 0.008 0.066 0.008c0.034 0 0.061 0.003 0.061 0.006 0 0.007-0.195 0.864-0.202 0.888-0.004 0.013-0.027 0.014-0.331 0.014-0.18 0-0.327-0.002-0.327-0.004s0.030-0.126 0.066-0.276c0.070-0.287 0.139-0.597 0.139-0.622 0-0.013-0.008-0.015-0.065-0.015h-0.065l0.005-0.077c0.005-0.071 0.004-0.078-0.012-0.094-0.010-0.010-0.027-0.018-0.038-0.018-0.027 0-0.070 0.018-0.085 0.036-0.013 0.015-0.043 0.143-0.036 0.154 0.002 0.004 0.033 0.007 0.069 0.007h0.065l-0.005 0.023c-0.003 0.012-0.050 0.216-0.104 0.452l-0.1 0.43-0.319 0.002c-0.175 0.001-0.323 0.001-0.329-0.002-0.007-0.003-0.007-0.014 0.001-0.047 0.082-0.328 0.2-0.851 0.195-0.86-0.002-0.003-0.034-0.006-0.071-0.006h-0.068l0.012-0.062c0.013-0.072 0.006-0.101-0.028-0.117-0.026-0.012-0.077 0.002-0.1 0.027-0.017 0.019-0.047 0.143-0.037 0.153 0.004 0.004 0.034 0.008 0.068 0.009l0.062 0.002-0.104 0.45c-0.057 0.248-0.105 0.451-0.105 0.452-0.001 0.004-0.644 0.002-0.648-0.002zM15.208 2.746c-0.082-0.015-0.143-0.038-0.203-0.078-0.139-0.093-0.178-0.241-0.119-0.445 0.045-0.154 0.132-0.274 0.266-0.366 0.020-0.014 0.018-0.014-0.053-0.014l-0.074-0.001 0.025-0.016c0.046-0.029 0.194-0.084 0.281-0.103 0.101-0.023 0.171-0.033 0.278-0.041 0.064-0.005 0.077-0.008 0.085-0.022 0.017-0.032-0.009-0.082-0.050-0.098-0.115-0.045-0.332-0.002-0.51 0.1-0.063 0.036-0.076 0.041-0.12 0.041-0.027 0-0.049-0.003-0.049-0.006s0.023-0.108 0.051-0.234l0.051-0.227 0.053-0.016c0.238-0.070 0.553-0.105 0.745-0.083 0.3 0.034 0.46 0.141 0.5 0.335 0.016 0.079-0 0.232-0.038 0.356-0.004 0.013 0.003 0.014 0.075 0.014 0.078 0 0.079 0 0.076 0.018-0.002 0.010-0.049 0.215-0.105 0.454l-0.101 0.436h-0.325c-0.3 0-0.325-0.001-0.32-0.014 0.006-0.015 0.015-0.016-0.116 0.009-0.081 0.015-0.217 0.015-0.3 0zM15.676 2.347l0.037-0.018 0.022-0.101c0.012-0.056 0.024-0.12 0.028-0.142l0.006-0.041-0.039 0.006c-0.088 0.013-0.18 0.062-0.216 0.115-0.028 0.041-0.032 0.105-0.009 0.141 0.037 0.059 0.105 0.075 0.173 0.041zM20.351 2.753c-0.137-0.022-0.223-0.060-0.295-0.133-0.069-0.070-0.091-0.127-0.091-0.235 0.001-0.203 0.11-0.406 0.283-0.521l0.032-0.021-0.146-0.005 0.079-0.038c0.131-0.063 0.258-0.095 0.461-0.114 0.059-0.005 0.111-0.014 0.117-0.018 0.013-0.010 0.013-0.040 0.001-0.066-0.029-0.064-0.184-0.076-0.355-0.026-0.069 0.020-0.197 0.079-0.243 0.111-0.016 0.012-0.036 0.016-0.076 0.016-0.030 0-0.054-0.001-0.054-0.003 0-0.011 0.106-0.459 0.11-0.462 0.009-0.009 0.141-0.044 0.238-0.063 0.134-0.027 0.215-0.036 0.364-0.042 0.313-0.012 0.545 0.064 0.639 0.21 0.064 0.099 0.076 0.226 0.038 0.391-0.012 0.050-0.021 0.095-0.021 0.1s0.027 0.009 0.074 0.009c0.059 0 0.074 0.002 0.074 0.012s-0.105 0.471-0.184 0.805l-0.022 0.092h-0.323c-0.292 0-0.323-0.001-0.323-0.013 0-0.011-0.005-0.012-0.027-0.008-0.119 0.026-0.272 0.036-0.35 0.024zM20.764 2.355c0.052-0.020 0.052-0.020 0.082-0.165 0.016-0.076 0.027-0.14 0.024-0.143-0.007-0.007-0.102 0.016-0.147 0.035-0.114 0.050-0.164 0.153-0.112 0.232 0.030 0.046 0.095 0.063 0.153 0.040zM8.042 2.736c0.030-0.123 0.189-0.867 0.186-0.872-0.002-0.004-0.035-0.006-0.072-0.006h-0.068l0.055-0.245c0.030-0.135 0.058-0.255 0.060-0.266l0.005-0.021h0.663l-0.006 0.023c-0.027 0.109-0.114 0.507-0.112 0.512 0.002 0.003 0.035 0.006 0.073 0.006h0.070l-0.005 0.023c-0.003 0.012-0.047 0.21-0.098 0.44l-0.092 0.418-0.332 0.002c-0.314 0.002-0.332 0.001-0.329-0.012zM8.241 1.142c0-0.003 0.074-0.329 0.111-0.486l0.004-0.018h0.344c0.324 0 0.344 0.001 0.34 0.014-0.006 0.019-0.111 0.483-0.111 0.489 0 0.003-0.155 0.005-0.344 0.005s-0.344-0.002-0.344-0.004z"></path>
</symbol>
</defs>
</svg>
