<?xml version="1.0" standalone="no"?>
<!DOCTYPE svg PUBLIC "-//W3C//DTD SVG 20010904//EN"
 "http://www.w3.org/TR/2001/REC-SVG-20010904/DTD/svg10.dtd">
<svg version="1.0" xmlns="http://www.w3.org/2000/svg"
 width="2815.000000pt" height="626.000000pt" viewBox="0 0 2815.000000 626.000000"
 preserveAspectRatio="xMidYMid meet">

<g transform="translate(0.000000,626.000000) scale(0.100000,-0.100000)"
fill="#000000" stroke="none">
<path d="M2145 5640 c-490 -56 -939 -321 -1233 -728 -71 -99 -190 -330 -226
-442 -84 -254 -106 -553 -61 -815 51 -298 209 -622 412 -846 310 -341 688
-534 1133 -580 241 -24 552 16 757 98 52 21 62 28 51 38 -7 7 -158 108 -335
224 l-321 211 -60 0 c-242 0 -537 129 -740 324 -165 158 -296 409 -332 638
-18 114 -8 341 20 448 126 477 520 811 1013 861 304 30 592 -58 839 -257 l79
-65 197 192 c108 105 199 196 201 202 4 11 -15 28 -139 129 -226 184 -495 305
-785 354 -112 18 -364 26 -470 14z m508 -129 c252 -54 476 -159 680 -319 l58
-46 -127 -127 -126 -126 -79 56 c-137 98 -282 163 -449 202 -122 29 -356 36
-482 15 -413 -68 -745 -315 -932 -693 -320 -645 -4 -1432 682 -1702 85 -34
205 -62 320 -75 l107 -13 225 -148 225 -149 -45 -13 c-166 -49 -506 -56 -702
-14 -635 137 -1128 628 -1270 1268 -30 134 -33 473 -5 600 63 295 186 544 374
758 211 242 522 432 833 509 161 40 210 45 420 42 153 -3 216 -8 293 -25z"/>
<path d="M7418 4625 l-3 -1026 -280 252 c-331 298 -612 549 -1010 904 -361
322 -689 616 -860 769 l-130 117 -3 -428 -3 -428 49 -45 c26 -25 174 -157 328
-295 153 -137 428 -382 609 -545 182 -163 497 -444 700 -625 376 -335 465
-414 890 -794 132 -118 250 -224 263 -235 l22 -19 0 1711 0 1712 -285 0 -285
0 -2 -1025z m472 -621 c0 -893 -4 -1534 -9 -1532 -10 3 -654 576 -1660 1477
-631 564 -764 683 -851 759 -47 41 -97 88 -112 104 l-28 28 0 281 c0 178 4
279 10 277 8 -3 190 -163 530 -468 58 -52 229 -205 380 -340 151 -135 410
-366 576 -515 493 -443 737 -661 772 -690 l32 -27 0 1091 0 1091 180 0 180 0
0 -1536z"/>
<path d="M8781 5365 l284 -285 868 0 867 0 0 285 0 285 -1152 0 -1152 0 285
-285z m1909 -5 l0 -180 -783 0 -783 0 -110 104 c-60 56 -140 137 -177 180
l-69 76 961 0 961 0 0 -180z"/>
<path d="M11300 5254 l0 -399 864 -864 865 -865 288 282 c158 154 416 409 573
566 157 157 288 286 292 286 5 0 8 -459 8 -1020 l0 -1020 285 0 285 0 0 1710
c0 941 -3 1710 -8 1710 -4 0 -246 -239 -537 -531 -292 -291 -677 -675 -858
-851 l-327 -320 -865 857 -865 857 0 -398z m1535 -1273 c104 -105 194 -191
200 -191 5 0 371 361 812 802 l803 803 0 -1533 0 -1532 -180 0 -180 0 0 1097
0 1098 -457 -455 c-252 -250 -536 -532 -631 -625 l-172 -170 -810 810 -810
810 0 249 0 248 618 -610 c339 -336 702 -696 807 -801z"/>
<path d="M18810 5635 c-171 -27 -340 -106 -468 -219 -261 -230 -373 -483 -359
-811 6 -143 21 -213 68 -336 88 -229 320 -458 560 -553 152 -59 147 -59 759
-65 504 -6 570 -9 610 -24 112 -44 201 -127 254 -237 29 -61 31 -72 31 -176 0
-107 -1 -112 -38 -186 -62 -126 -182 -211 -319 -226 l-63 -7 -3 -289 -2 -289
82 7 c184 16 380 88 515 190 92 69 222 213 274 302 87 149 125 273 135 444 8
135 -8 258 -50 383 -48 141 -113 243 -231 363 -152 154 -278 229 -470 281
l-100 26 -565 6 -565 6 -68 33 c-164 81 -257 241 -244 424 13 197 158 353 360
388 l67 12 0 284 0 284 -42 -1 c-24 -1 -81 -7 -128 -14z m65 -279 l0 -178 -70
-25 c-194 -70 -327 -229 -356 -427 -38 -255 122 -511 371 -592 49 -16 115 -19
620 -24 l565 -6 90 -28 c212 -64 390 -201 516 -393 178 -272 173 -674 -12
-944 -148 -216 -366 -361 -601 -398 l-48 -8 0 181 0 181 70 24 c222 76 359
268 360 501 0 224 -160 440 -379 512 -64 21 -86 22 -636 28 -542 6 -573 8
-638 28 -288 89 -517 315 -601 592 -46 150 -50 350 -11 504 62 245 281 492
527 594 69 29 202 63 223 58 6 -2 10 -70 10 -180z"/>
<path d="M21639 5366 l285 -285 630 -3 c625 -4 632 -4 699 -26 91 -31 210
-114 270 -187 89 -111 127 -219 127 -363 0 -151 -47 -266 -153 -379 -83 -87
-143 -127 -245 -162 l-77 -26 -907 -3 -908 -3 0 -854 0 -855 285 0 285 0 0
569 0 570 658 4 c702 4 705 4 862 57 288 96 556 339 681 616 153 341 123 767
-74 1072 -116 179 -282 327 -472 422 -127 63 -226 93 -365 110 -52 6 -425 10
-975 10 l-890 0 284 -284z m1703 147 c187 -53 340 -143 478 -283 193 -194 285
-403 297 -671 15 -324 -90 -588 -320 -806 -130 -124 -275 -205 -455 -256 -75
-21 -94 -22 -799 -25 l-723 -3 0 -569 0 -570 -180 0 -180 0 2 748 3 747 875 5
c811 5 879 7 929 23 138 47 260 129 339 230 67 86 86 120 118 212 25 72 28 94
28 210 0 116 -3 138 -28 210 -36 105 -86 186 -161 260 -80 80 -173 140 -270
173 l-80 27 -620 3 -621 3 -179 180 -180 180 825 -3 c813 -3 826 -4 902 -25z"/>
<path d="M4050 3933 l0 -1708 285 285 285 285 0 1145 0 1145 -285 278 -285
279 0 -1709z m469 7 l1 -1095 -180 -180 -180 -180 0 1450 0 1449 179 -175 178
-174 2 -1095z"/>
<path d="M15879 3943 c-470 -934 -855 -1704 -857 -1710 -3 -10 65 -13 315 -13
l318 0 542 1077 541 1076 254 -506 253 -507 317 0 c175 0 318 3 318 8 0 9
-1129 2255 -1139 2265 -5 5 -393 -756 -862 -1690z m1354 483 c260 -517 474
-943 475 -948 2 -4 -86 -8 -196 -8 l-200 0 -282 558 c-155 306 -285 561 -289
565 -5 5 -265 -501 -578 -1125 l-570 -1133 -202 -3 c-110 -1 -201 -1 -201 1 0
2 89 181 199 398 109 217 456 907 771 1533 522 1038 574 1137 587 1120 8 -10
227 -442 486 -958z"/>
<path d="M24608 3936 c-472 -938 -858 -1707 -858 -1710 0 -3 143 -6 318 -6
l318 0 486 963 c268 529 510 1010 540 1070 29 59 55 107 58 107 3 0 118 -224
256 -498 l252 -497 322 -3 322 -2 -574 1140 c-315 627 -575 1140 -578 1140 -3
0 -391 -767 -862 -1704z m1350 506 c265 -528 482 -962 482 -965 0 -4 -90 -7
-200 -7 l-200 0 -282 565 c-156 311 -285 565 -288 565 -3 0 -219 -426 -480
-946 -261 -521 -519 -1031 -573 -1135 l-98 -189 -199 0 -199 0 555 1103 c305
606 652 1297 772 1535 119 237 219 432 222 432 4 0 223 -431 488 -958z"/>
<path d="M8500 3935 l0 -285 1150 0 1150 0 -2 283 -3 282 -1147 3 -1148 2 0
-285z m2190 0 l0 -175 -1040 0 -1040 0 0 175 0 175 1040 0 1040 0 0 -175z"/>
<path d="M9020 2747 c-30 -28 -160 -148 -288 -266 -178 -164 -232 -219 -232
-237 l0 -24 1150 0 1150 0 -2 288 -3 287 -860 2 -860 3 -55 -53z m1670 -237
l0 -180 -982 0 c-601 0 -978 4 -972 9 5 5 92 86 194 180 l185 171 788 0 787 0
0 -180z"/>
<path d="M17540 2785 c0 -3 63 -131 140 -285 l140 -280 320 0 320 0 -142 285
-143 285 -317 0 c-175 0 -318 -2 -318 -5z m655 -275 c47 -93 85 -172 85 -175
0 -3 -89 -5 -198 -5 l-197 0 -88 175 -87 175 200 0 200 0 85 -170z"/>
<path d="M26412 2505 l143 -285 317 0 c175 0 318 2 318 5 0 3 -63 131 -140
285 l-140 280 -320 0 -320 0 142 -285z m521 0 l87 -175 -200 0 -200 0 -85 170
c-47 93 -85 172 -85 175 0 3 89 5 198 5 l197 0 88 -175z"/>
<path d="M757 1493 c-4 -3 -7 -168 -7 -365 l0 -358 95 0 95 0 0 125 0 126 72
-3 72 -3 75 -122 76 -123 87 0 88 0 0 43 c0 34 -10 58 -55 127 l-54 85 54 55
55 56 0 124 0 124 -57 58 -57 58 -267 0 c-146 0 -269 -3 -272 -7z m463 -233
l0 -80 -140 0 -140 0 0 80 0 80 140 0 140 0 0 -80z"/>
<path d="M2377 1493 c-4 -3 -7 -144 -7 -313 l0 -306 53 -52 53 -52 262 0 263
0 -3 78 -3 77 -217 3 -218 2 0 60 0 60 190 0 190 0 0 80 0 80 -190 0 -190 0 0
65 0 65 220 0 221 0 -3 78 -3 77 -306 3 c-168 1 -308 -1 -312 -5z"/>
<path d="M3960 1188 l0 -314 53 -52 53 -52 237 0 237 0 0 80 0 80 -195 0 -195
0 -2 283 -3 282 -92 3 -93 3 0 -313z"/>
<path d="M5527 1442 l-57 -58 0 -307 0 -307 95 0 95 0 0 100 0 100 130 0 130
0 0 -100 0 -100 95 0 95 0 0 307 0 307 -57 58 -57 58 -206 0 -206 0 -57 -58z
m393 -207 l0 -105 -130 0 -130 0 0 105 0 105 130 0 130 0 0 -105z"/>
<path d="M7057 1493 c-4 -3 -7 -23 -7 -44 0 -31 16 -58 101 -174 55 -75 98
-142 96 -149 -3 -7 -48 -71 -101 -143 -84 -115 -96 -137 -96 -173 l0 -40 88 0
87 1 79 115 78 115 80 -115 79 -116 85 0 84 0 0 44 c0 40 -9 56 -100 181
l-101 136 100 137 c94 128 101 140 101 185 l0 47 -79 0 -79 0 -29 -37 c-16
-21 -53 -73 -82 -115 -30 -43 -56 -78 -60 -78 -3 0 -41 52 -84 115 l-78 115
-78 0 c-43 0 -81 -3 -84 -7z"/>
<path d="M8630 1425 l0 -75 30 0 30 0 0 -220 0 -220 -30 0 -30 0 0 -70 0 -70
155 0 155 0 0 70 0 70 -30 0 -30 0 0 219 0 220 28 3 c27 3 27 4 27 73 l0 70
-152 3 -153 3 0 -76z"/>
<path d="M9880 1135 l0 -365 95 0 95 0 2 197 3 198 138 -198 138 -197 84 0 85
0 0 365 0 365 -95 0 -95 0 -2 -201 -3 -201 -140 198 -140 199 -83 3 -82 3 0
-366z"/>
<path d="M11537 1442 l-57 -58 0 -255 0 -255 53 -52 53 -52 225 0 225 0 52 53
52 53 0 167 0 167 -180 0 -180 0 0 -80 0 -80 85 0 85 0 0 -60 0 -60 -140 0
-140 0 0 205 0 205 138 0 138 0 29 -30 c26 -28 34 -30 97 -30 l68 0 0 52 c0
50 -2 55 -57 110 l-57 58 -216 0 -216 0 -57 -58z"/>
<path d="M14290 1135 l0 -365 90 0 90 0 0 195 c0 107 3 195 8 195 4 0 33 -52
65 -115 l57 -115 49 0 50 0 63 122 63 122 3 -202 2 -202 95 0 95 0 -2 363 -3
362 -94 0 -94 0 -86 -162 c-47 -90 -88 -163 -91 -163 -3 0 -43 73 -90 163
l-85 162 -92 3 -93 3 0 -366z"/>
<path d="M16037 1442 l-57 -58 0 -255 0 -255 53 -52 53 -52 215 0 215 0 52 53
52 53 0 254 0 254 -57 58 -57 58 -206 0 -206 0 -57 -58z m393 -307 l0 -205
-130 0 -130 0 0 205 0 205 130 0 130 0 0 -205z"/>
<path d="M17550 1453 c0 -37 26 -118 122 -365 l121 -318 101 0 101 0 123 326
c93 246 122 334 120 362 l-3 37 -86 3 -86 3 -84 -235 c-45 -130 -85 -233 -88
-230 -4 3 -42 108 -87 232 l-80 227 -87 3 -87 3 0 -48z"/>
<path d="M19140 1425 l0 -75 30 0 30 0 0 -220 0 -220 -30 0 -30 0 0 -70 0 -70
155 0 155 0 0 70 0 70 -30 0 -30 0 0 219 0 220 28 3 c27 3 27 4 27 73 l0 70
-152 3 -153 3 0 -76z"/>
<path d="M20390 1187 l0 -313 53 -52 53 -52 257 0 257 0 0 80 0 80 -215 0
-215 0 0 60 0 60 185 0 185 0 0 80 0 80 -185 0 -185 0 0 65 0 65 215 0 215 0
0 80 0 80 -310 0 -310 0 0 -313z"/>
<path d="M21950 1420 l0 -80 185 -2 186 -3 -77 -85 c-42 -47 -126 -137 -185
-202 l-109 -116 0 -81 0 -81 310 0 310 0 0 80 0 80 -183 2 -184 3 184 200 183
200 0 82 0 83 -310 0 -310 0 0 -80z"/>
<path d="M23567 1442 l-57 -58 0 -255 0 -255 53 -52 53 -52 215 0 215 0 52 53
52 53 0 260 0 261 -54 52 -55 51 -208 0 -209 0 -57 -58z m401 -309 l2 -203
-135 0 -135 0 0 205 0 206 133 -3 132 -3 3 -202z"/>
<path d="M25120 1135 l0 -365 95 0 95 0 0 202 0 201 141 -201 141 -202 84 0
84 0 0 365 0 366 -92 -3 -93 -3 -5 -198 -5 -198 -100 142 c-55 79 -119 169
-142 201 l-43 58 -80 0 -80 0 0 -365z"/>
<path d="M26727 1493 c-4 -3 -7 -142 -7 -307 l0 -300 57 -58 57 -58 259 0 258
0 -3 78 -3 77 -218 3 -218 2 3 58 3 57 188 3 187 2 0 80 0 80 -187 2 -188 3 0
60 0 60 218 3 218 2 -3 78 -3 77 -306 3 c-168 1 -308 -1 -312 -5z"/>
</g>
</svg>
